<mxfile host="Electron" modified="2024-07-17T21:56:59.825Z" agent="Mozilla/5.0 (X11; Linux x86_64) AppleWebKit/537.36 (KHTML, like Gecko) draw.io/24.5.3 Chrome/124.0.6367.207 Electron/30.0.6 Safari/537.36" etag="ltziSG8vxohYyDfCgpe8" version="24.5.3" type="device">
  <diagram name="Page-1" id="hHSHt7kJSLCh7z7wVPhi">
    <mxGraphModel dx="398" dy="269" grid="1" gridSize="10" guides="1" tooltips="1" connect="1" arrows="1" fold="1" page="1" pageScale="1" pageWidth="850" pageHeight="1100" math="0" shadow="0">
      <root>
        <mxCell id="0" />
        <mxCell id="1" parent="0" />
        <mxCell id="ZfhCPEg1GW4x0kg7t4RE-1" value="Resource Management" style="ellipse;whiteSpace=wrap;html=1;fillColor=#dae8fc;strokeColor=#6c8ebf;" parent="1" vertex="1">
          <mxGeometry x="330" y="230" width="120" height="80" as="geometry" />
        </mxCell>
        <mxCell id="1UTov2rb44X8G90sPXQO-20" style="edgeStyle=orthogonalEdgeStyle;rounded=0;orthogonalLoop=1;jettySize=auto;html=1;entryX=0.5;entryY=1;entryDx=0;entryDy=0;exitX=0.5;exitY=0;exitDx=0;exitDy=0;" parent="1" source="1UTov2rb44X8G90sPXQO-1" target="ZfhCPEg1GW4x0kg7t4RE-1" edge="1">
          <mxGeometry relative="1" as="geometry" />
        </mxCell>
        <mxCell id="1UTov2rb44X8G90sPXQO-1" value="MLOps" style="ellipse;whiteSpace=wrap;html=1;" parent="1" vertex="1">
          <mxGeometry x="330" y="360" width="120" height="80" as="geometry" />
        </mxCell>
        <mxCell id="1UTov2rb44X8G90sPXQO-19" style="edgeStyle=orthogonalEdgeStyle;rounded=0;orthogonalLoop=1;jettySize=auto;html=1;entryX=0;entryY=0.5;entryDx=0;entryDy=0;" parent="1" source="1UTov2rb44X8G90sPXQO-2" target="ZfhCPEg1GW4x0kg7t4RE-1" edge="1">
          <mxGeometry relative="1" as="geometry" />
        </mxCell>
        <mxCell id="1UTov2rb44X8G90sPXQO-2" value="Resource Identifier" style="ellipse;whiteSpace=wrap;html=1;" parent="1" vertex="1">
          <mxGeometry x="140" y="270" width="120" height="80" as="geometry" />
        </mxCell>
        <mxCell id="1UTov2rb44X8G90sPXQO-21" style="edgeStyle=orthogonalEdgeStyle;rounded=0;orthogonalLoop=1;jettySize=auto;html=1;entryX=0;entryY=1;entryDx=0;entryDy=0;" parent="1" source="1UTov2rb44X8G90sPXQO-4" target="1UTov2rb44X8G90sPXQO-1" edge="1">
          <mxGeometry relative="1" as="geometry">
            <Array as="points">
              <mxPoint x="280" y="450" />
              <mxPoint x="348" y="450" />
            </Array>
          </mxGeometry>
        </mxCell>
        <mxCell id="1UTov2rb44X8G90sPXQO-4" value="Monitoring" style="ellipse;whiteSpace=wrap;html=1;" parent="1" vertex="1">
          <mxGeometry x="240" y="470" width="80" height="70" as="geometry" />
        </mxCell>
        <mxCell id="1UTov2rb44X8G90sPXQO-24" style="edgeStyle=orthogonalEdgeStyle;rounded=0;orthogonalLoop=1;jettySize=auto;html=1;entryX=1;entryY=0.5;entryDx=0;entryDy=0;exitX=0.5;exitY=0;exitDx=0;exitDy=0;" parent="1" source="1UTov2rb44X8G90sPXQO-5" target="1UTov2rb44X8G90sPXQO-1" edge="1">
          <mxGeometry relative="1" as="geometry">
            <Array as="points">
              <mxPoint x="578" y="400" />
            </Array>
          </mxGeometry>
        </mxCell>
        <mxCell id="1UTov2rb44X8G90sPXQO-5" value="Version Control" style="ellipse;whiteSpace=wrap;html=1;" parent="1" vertex="1">
          <mxGeometry x="540" y="475" width="75" height="70" as="geometry" />
        </mxCell>
        <mxCell id="1UTov2rb44X8G90sPXQO-6" value="Orchestration" style="ellipse;whiteSpace=wrap;html=1;" parent="1" vertex="1">
          <mxGeometry x="330" y="465" width="90" height="80" as="geometry" />
        </mxCell>
        <mxCell id="1UTov2rb44X8G90sPXQO-25" style="edgeStyle=orthogonalEdgeStyle;rounded=0;orthogonalLoop=1;jettySize=auto;html=1;exitX=0.5;exitY=0;exitDx=0;exitDy=0;entryX=0.5;entryY=1;entryDx=0;entryDy=0;" parent="1" source="1UTov2rb44X8G90sPXQO-7" target="1UTov2rb44X8G90sPXQO-6" edge="1">
          <mxGeometry relative="1" as="geometry" />
        </mxCell>
        <mxCell id="1UTov2rb44X8G90sPXQO-7" value="Pipelines" style="ellipse;whiteSpace=wrap;html=1;" parent="1" vertex="1">
          <mxGeometry x="332.5" y="580" width="85" height="80" as="geometry" />
        </mxCell>
        <mxCell id="1UTov2rb44X8G90sPXQO-23" style="edgeStyle=orthogonalEdgeStyle;rounded=0;orthogonalLoop=1;jettySize=auto;html=1;entryX=1;entryY=1;entryDx=0;entryDy=0;" parent="1" source="1UTov2rb44X8G90sPXQO-8" target="1UTov2rb44X8G90sPXQO-1" edge="1">
          <mxGeometry relative="1" as="geometry">
            <Array as="points">
              <mxPoint x="480" y="450" />
              <mxPoint x="432" y="450" />
            </Array>
          </mxGeometry>
        </mxCell>
        <mxCell id="1UTov2rb44X8G90sPXQO-8" value="Workflow" style="ellipse;whiteSpace=wrap;html=1;" parent="1" vertex="1">
          <mxGeometry x="440" y="472.5" width="80" height="75" as="geometry" />
        </mxCell>
        <mxCell id="1UTov2rb44X8G90sPXQO-18" style="edgeStyle=orthogonalEdgeStyle;rounded=0;orthogonalLoop=1;jettySize=auto;html=1;exitX=0.5;exitY=0;exitDx=0;exitDy=0;entryX=0;entryY=0.5;entryDx=0;entryDy=0;" parent="1" source="1UTov2rb44X8G90sPXQO-9" target="1UTov2rb44X8G90sPXQO-1" edge="1">
          <mxGeometry relative="1" as="geometry" />
        </mxCell>
        <mxCell id="1UTov2rb44X8G90sPXQO-9" value="Deployment Configuraton" style="ellipse;whiteSpace=wrap;html=1;" parent="1" vertex="1">
          <mxGeometry x="150" y="460" width="80" height="80" as="geometry" />
        </mxCell>
        <mxCell id="1UTov2rb44X8G90sPXQO-26" style="edgeStyle=orthogonalEdgeStyle;rounded=0;orthogonalLoop=1;jettySize=auto;html=1;exitX=0.5;exitY=0;exitDx=0;exitDy=0;entryX=0.5;entryY=1;entryDx=0;entryDy=0;" parent="1" source="1UTov2rb44X8G90sPXQO-11" target="1UTov2rb44X8G90sPXQO-8" edge="1">
          <mxGeometry relative="1" as="geometry" />
        </mxCell>
        <mxCell id="1UTov2rb44X8G90sPXQO-11" value="Workflow Automation" style="ellipse;whiteSpace=wrap;html=1;" parent="1" vertex="1">
          <mxGeometry x="440" y="580" width="85" height="80" as="geometry" />
        </mxCell>
        <mxCell id="1UTov2rb44X8G90sPXQO-22" style="edgeStyle=orthogonalEdgeStyle;rounded=0;orthogonalLoop=1;jettySize=auto;html=1;entryX=0.383;entryY=0.963;entryDx=0;entryDy=0;entryPerimeter=0;" parent="1" source="1UTov2rb44X8G90sPXQO-6" target="1UTov2rb44X8G90sPXQO-1" edge="1">
          <mxGeometry relative="1" as="geometry" />
        </mxCell>
        <mxCell id="l4Oi6oDlVctqy1pLxmqH-2" style="edgeStyle=orthogonalEdgeStyle;rounded=0;orthogonalLoop=1;jettySize=auto;html=1;entryX=1;entryY=0.5;entryDx=0;entryDy=0;" parent="1" source="l4Oi6oDlVctqy1pLxmqH-1" target="ZfhCPEg1GW4x0kg7t4RE-1" edge="1">
          <mxGeometry relative="1" as="geometry" />
        </mxCell>
        <mxCell id="l4Oi6oDlVctqy1pLxmqH-1" value="Interface" style="ellipse;whiteSpace=wrap;html=1;fillColor=#d5e8d4;strokeColor=#82b366;" parent="1" vertex="1">
          <mxGeometry x="560" y="230" width="120" height="80" as="geometry" />
        </mxCell>
        <mxCell id="l4Oi6oDlVctqy1pLxmqH-3" value="Interacts" style="text;html=1;align=center;verticalAlign=middle;whiteSpace=wrap;rounded=0;" parent="1" vertex="1">
          <mxGeometry x="480" y="245" width="60" height="30" as="geometry" />
        </mxCell>
        <mxCell id="MiAbCRBbxgAkcQrk1CFL-1" value="" style="rounded=0;whiteSpace=wrap;html=1;fillColor=#dae8fc;strokeColor=#6c8ebf;" parent="1" vertex="1">
          <mxGeometry x="586" y="594.5" width="10" height="10" as="geometry" />
        </mxCell>
        <mxCell id="MiAbCRBbxgAkcQrk1CFL-2" value="" style="rounded=0;whiteSpace=wrap;html=1;fillColor=#d5e8d4;strokeColor=#82b366;" parent="1" vertex="1">
          <mxGeometry x="586" y="613.5" width="10" height="10" as="geometry" />
        </mxCell>
        <mxCell id="MiAbCRBbxgAkcQrk1CFL-3" value="Theme" style="text;html=1;align=center;verticalAlign=middle;whiteSpace=wrap;rounded=0;" parent="1" vertex="1">
          <mxGeometry x="595" y="590" width="50" height="19" as="geometry" />
        </mxCell>
        <mxCell id="MiAbCRBbxgAkcQrk1CFL-4" value="Subtheme" style="text;html=1;align=center;verticalAlign=middle;whiteSpace=wrap;rounded=0;" parent="1" vertex="1">
          <mxGeometry x="604" y="609" width="50" height="19" as="geometry" />
        </mxCell>
        <mxCell id="TZPmJq-L4z-Tn191acWB-1" value="" style="rounded=0;whiteSpace=wrap;html=1;" vertex="1" parent="1">
          <mxGeometry x="586" y="631.5" width="10" height="10" as="geometry" />
        </mxCell>
        <mxCell id="TZPmJq-L4z-Tn191acWB-2" value="Category" style="text;html=1;align=center;verticalAlign=middle;whiteSpace=wrap;rounded=0;" vertex="1" parent="1">
          <mxGeometry x="601" y="627" width="50" height="19" as="geometry" />
        </mxCell>
      </root>
    </mxGraphModel>
  </diagram>
</mxfile>
